<?xml version="1.0" encoding="iso-8859-1"?>
<!-- Uploaded to: SVG Repo, www.svgrepo.com, Generator: SVG Repo Mixer Tools -->
<svg height="800px" width="800px" version="1.1" id="Capa_1" xmlns="http://www.w3.org/2000/svg" xmlns:xlink="http://www.w3.org/1999/xlink" 
	 viewBox="0 0 213.844 213.844" xml:space="preserve">
<g>
	<g>
		<path style="fill:#010002;" d="M154.908,136.914c-1.099,1.583-2.301,3.046-3.617,4.362c-8.218,8.218-19.151,12.744-30.769,12.744
			H93.327c-11.618,0-22.55-4.525-30.769-12.744c-1.316-1.316-2.513-2.779-3.617-4.368c-28.191,15.577-47.178,44.307-47.178,76.936
			h190.318C202.087,181.221,183.099,152.492,154.908,136.914z"/>
		<path style="fill:#010002;" d="M69.004,132.025c0.419,0.511,0.794,1.11,1.246,1.556c6.168,6.168,14.365,9.562,23.078,9.562h27.195
			c8.713,0,16.91-3.394,23.078-9.562c0.446-0.446,0.827-1.044,1.24-1.556c-11.623-4.775-24.432-7.468-37.921-7.468
			C93.441,124.557,80.627,127.249,69.004,132.025z"/>
		<path style="fill:#010002;" d="M58.354,99.63h0.005c2.007,10.878,4.977,24.65,10.644,31.601
			c11.623-4.775,24.432-7.071,37.921-7.071c13.483,0,26.298,2.888,37.921,7.669c5.667-6.946,8.637-19.281,10.644-30.709v0.049
			c2.594-1.626,4.852-3.704,6.565-6.228c2.388-3.519,3.791-7.751,3.791-12.319c0-1.86-0.299-3.628-0.734-5.357
			c-0.81-3.214-2.333-6.103-4.384-8.577c1.43-14.544,0.315-29.072-6.249-35.642c-0.005-0.005-0.011-0.071-0.016-0.109
			c1.43-1.218,2.556-2.616,3.389-4.161c0.946-1.751,1.539-3.66,1.871-5.635c1.991-11.77-5.396-25.645-4.759-19.592
			c0.914,8.605-28.093,10.416-29.001,7.696c-0.245-0.74,6.233-2.861,4.852-6.38c-1.469-3.753-10.041-4.449-13.168-4.71
			c-7.914-0.658-15.996,0.821-23.334,3.78c-5.515,2.225-10.394,5.281-14.892,8.822c-2.698,2.121-5.249,4.427-7.702,6.853
			c-4.232,4.172-8.197,8.664-12.086,13.206c-0.082,0.082-0.174,0.152-0.261,0.234c-0.005,0.005-0.011,0.011-0.016,0.022
			c-0.468,0.462-0.936,0.821-1.403,1.3h-0.37c-4.96,10.878-5.749,20.804-4.455,33.913c4.03-4.89,10.062-7.849,16.894-7.849
			C82.161,60.436,92,70.389,92,82.529c0,0.022-0.005,0.038-0.005,0.054c-0.033-12.113-9.856-21.925-21.974-21.925
			c-6.831,0-12.863,3.182-16.894,8.077c-2.051,2.486-3.573,5.396-4.373,8.621c-0.419,1.697-0.713,3.448-0.713,5.281
			c0,4.542,1.382,7.979,3.742,11.482C53.497,96.654,55.754,99.63,58.354,99.63z M131.401,23.483c1.773,0,3.514,0.174,5.227,0.451
			C134.909,23.689,133.174,23.483,131.401,23.483z M140.413,24.761c0.201,0.06,0.408,0.109,0.615,0.169
			C140.821,24.87,140.62,24.815,140.413,24.761z"/>
	</g>
</g>
</svg>